<?xml version="1.0" encoding="UTF-8"?>
<svg width="112px" height="150px" viewBox="0 0 112 150" version="1.1" xmlns="http://www.w3.org/2000/svg" xmlns:xlink="http://www.w3.org/1999/xlink">
    <title>marker-w</title>
    <g id="marker-w" stroke="none" stroke-width="1" fill="none" fill-rule="evenodd">
        <g id="Group" transform="translate(4.000000, 4.000000)" fill="#01689B" fill-rule="nonzero" stroke="#FFFFFF" stroke-linecap="round" stroke-linejoin="round" stroke-opacity="0.94117647" stroke-width="7">
            <g id="path883">
                <path d="M103.747296,49.70028 C103.747296,90.914235 51.968146,141.733895 51.968146,141.733895 C51.968146,141.733895 0,90.725245 0,49.70028 C0,20.581568 21.407939,-1.42108547e-14 51.779156,-1.42108547e-14 C82.150376,-1.42108547e-14 103.747296,20.581569 103.747296,49.70028 Z"></path>
            </g>
        </g>
        <polygon id="w" fill="#FFFFFF" fill-rule="nonzero" points="48.47 90.55 55.58 65.98 55.85 65.98 62.42 90.55 76.46 90.55 88.43 46 77.81 46 70.07 81.91 69.62 81.91 59.54 46 49.28 46 51.53 54.28 42.71 81.91 42.26 81.91 34.7 46 23 46 34.88 90.55"></polygon>
    </g>
</svg>