<svg height="150" viewBox="0 0 112 150" width="112" xmlns="http://www.w3.org/2000/svg" xmlns:xlink="http://www.w3.org/1999/xlink"><filter id="a"><feColorMatrix in="SourceGraphic" type="matrix" values="0 0 0 0 1.000000 0 0 0 0 1.000000 0 0 0 0 1.000000 0 0 0 1.000000 0"/></filter><g fill="none" fill-rule="evenodd"><path d="m103.747296 49.70028c0 41.213955-51.77915 92.033615-51.77915 92.033615s-51.968146-51.00865-51.968146-92.033615c0-29.118712 21.407939-49.70028 51.779156-49.70028 30.37122 0 51.96814 20.581569 51.96814 49.70028z" style="fill:#275937;fill-rule:nonzero;stroke:#fff;stroke-linecap:round;stroke-linejoin:round;stroke-opacity:.941176;stroke-width:7" transform="translate(4 4)"/><g filter="url(#a)"><g transform="translate(9 16)"><path d="m0 0h95v95h-95z"/><g fill="#000" fill-rule="nonzero" transform="translate(10 10)"><path d="m72 0h-69c-1.65675 0-3 1.31583673-3 2.93877551v51.41387759c0 1.6229387 1.34325 2.9387755 3 2.9387755h24.75s-.8013 2.8523755-2.25 7.3616326c-.86685 2.6997061-3.56865 2.9270204-4.30365 2.9387755h-3.19635c-.82905 0-1.5.6579919-1.5 1.4693878v2.9387755h42v-2.9387755c0-.8113959-.67095-1.4693878-1.5-1.4693878h-3.19635c-.735-.0117551-3.4368-.2390694-4.30365-2.9387755-.58215-1.8117551-1.05405-3.3363918-1.41705-4.5327673 0 0-6.6036-.9399674-13.4658-2.2515429-.48045-.0918367-.4218-.4362612-.36645-.5624816h37.7493c1.65675 0 3-1.3158367 3-2.9387755v-51.42871839c0-1.62293878-1.34325-2.93877551-3-2.93877551zm-4.5 47.0204082h-60v-39.67346942h60z"/><path d="m39 19.102041h6v11.755102h-6z"/><path d="m48 13.22449h6v17.632653h-6z"/><path d="m57 17.632653h6v13.22449h-6z"/><path d="m48 45.2684571c2.62665 0 4.8225-1.7560653 5.48625-4.1256h11.01375v-2.9387755h-11.01375c-.66375-2.3695347-2.8596-4.1256-5.48625-4.1256-2.6265 0-4.82235 1.7560653-5.48625 4.1256h-30.51375v2.9387755h30.51375c.6639 2.3695347 2.85975 4.1256 5.48625 4.1256zm0-8.4450122c1.6044 0 2.9094 1.2783673 2.9094 2.8500245 0 1.5715102-1.305 2.8500245-2.9094 2.8500245-1.60425 0-2.9094-1.2785143-2.9094-2.8500245 0-1.5716572 1.30515-2.8500245 2.9094-2.8500245z"/><path d="m21.7407 33.7959184c5.3733 0 9.7293-4.2671021 9.7293-9.5307429 0-1.8556898-.55005-3.5817796-1.48665-5.0464653l-8.98335 5.0464653v-9.4953306c-4.9776.4195102-8.9886 4.5104327-8.9886 9.4953306 0 5.2636408 4.356 9.5307429 9.7293 9.5307429z"/><path d="m24.0708 9.42435918v9.53074282l8.24265-5.0464653c-1.7199-2.6897143-4.7637-4.48427752-8.24265-4.48427752z"/></g></g></g></g></svg>