<svg height="150" viewBox="0 0 112 150" width="112" xmlns="http://www.w3.org/2000/svg" xmlns:xlink="http://www.w3.org/1999/xlink"><filter id="a"><feColorMatrix in="SourceGraphic" type="matrix" values="0 0 0 0 1.000000 0 0 0 0 1.000000 0 0 0 0 1.000000 0 0 0 1.000000 0"/></filter><g fill="none" fill-rule="evenodd"><path d="m103.747296 49.70028c0 41.213955-51.77915 92.033615-51.77915 92.033615s-51.968146-51.00865-51.968146-92.033615c0-29.118712 21.407939-49.70028 51.779156-49.70028 30.37122 0 51.96814 20.581569 51.96814 49.70028z" style="fill:#275937;fill-rule:nonzero;stroke:#fff;stroke-linecap:round;stroke-linejoin:round;stroke-opacity:.941176;stroke-width:7" transform="translate(4 4)"/><g filter="url(#a)"><g transform="translate(8 27)"><path d="m0 0h96v96h-96z"/><g fill="#000" fill-rule="nonzero" transform="translate(6 5)"><path d="m81.5773273 17.2937456-4.6823491-7.0386387c-.5310618-.79799132-1.5189382-1.29059144-2.5889637-1.29059144h-36.2651709c-.03116-.08396763-.1003381-.39189873.3725782-.54399668.2938582-.09442623 3.74084-.77333887 6.3138509-1.2747541v-4.67096078c0-1.73881718-2.3362545-2.17180328-5.2181818-2.17180328s-5.2181818.4329861-5.2181818 2.17180328v6.48971156h-7.4545455c-.8234291 0-1.4909091.66890226-1.4909091 1.49408594v14.9408591c0 .8251836.66748 1.4940859 1.4909091 1.4940859h47.4696509c1.0700255 0 2.058051-.4926001 2.5889637-1.2905914l4.6823491-7.0386388c.2559891-.3847271.2559891-.8858435 0-1.2705706z"/><path d="m55.1636364 29.8817182h-47.46965095c-1.07002545 0-2.0580509.4926001-2.58896363 1.2905914l-4.68234909 7.0386387c-.25598909.3847272-.25598909.885993 0 1.2707201l4.68234909 7.0386387c.53106182.7978419 1.51893818 1.290442 2.58896363 1.290442h26.59692365 6.6864291c.03116.0839676.1003382.3918988-.3725782.5439967-.2938582.0944262-3.7409891.7733389-6.3138509 1.2747541v40.0156547h10.4363636v-41.8344055h10.4363637c.8234291 0 1.4909091-.6689022 1.4909091-1.4940859v-14.9408591c0-.8251836-.66748-1.4940859-1.4909091-1.4940859z"/></g></g></g></g></svg>