<svg height="150" viewBox="0 0 112 150" width="112" xmlns="http://www.w3.org/2000/svg" xmlns:xlink="http://www.w3.org/1999/xlink"><filter id="a"><feColorMatrix in="SourceGraphic" type="matrix" values="0 0 0 0 1.000000 0 0 0 0 1.000000 0 0 0 0 1.000000 0 0 0 1.000000 0"/></filter><g fill="none" fill-rule="evenodd"><path d="m103.747296 49.70028c0 41.213955-51.77915 92.033615-51.77915 92.033615s-51.968146-51.00865-51.968146-92.033615c0-29.118712 21.407939-49.70028 51.779156-49.70028 30.37122 0 51.96814 20.581569 51.96814 49.70028z" style="fill:#275937;fill-rule:nonzero;stroke:#fff;stroke-linecap:round;stroke-linejoin:round;stroke-opacity:.941176;stroke-width:7" transform="translate(4 4)"/><g filter="url(#a)"><g transform="translate(15 18)"><path d="m0 0h83v83h-83z"/><path d="m62.25284 0s-34.88277 0-44.05284 0c-9.01394 0-18.2 3.50334821-18.2 12.9915232v51.0899625c0 5.32535 2.76159 8.9185143 7.8 8.9185143h44.04803c1.51983 0 2.75197-1.2333089 2.75197-2.7547071v-54.4548715c0-1.5213982-1.23214-2.7547071-2.75197-2.7547071-14.29428 0-28.58609 0-42.9026 0-1.1856 0-1.74382-1.0755768-1.32327-2.2756447 1.31534-3.75337317 8.14034-4.24221246 10.57784-4.24221246h40.3v54.74999996h3.9c1.43598 0 2.6-1.1672178 2.6-2.6071428v-55.90600716c0-1.52139821-1.22993-2.75470714-2.74716-2.75470714z" fill="#000" fill-rule="nonzero" transform="translate(9 6)"/></g></g></g></svg>