<svg height="150" viewBox="0 0 112 150" width="112" xmlns="http://www.w3.org/2000/svg"><g fill="none" fill-rule="evenodd"><path d="m103.747296 49.70028c0 41.213955-51.77915 92.033615-51.77915 92.033615s-51.968146-51.00865-51.968146-92.033615c0-29.118712 21.407939-49.70028 51.779156-49.70028 30.37122 0 51.96814 20.581569 51.96814 49.70028z" style="fill:#01689b;fill-rule:nonzero;stroke:#fff;stroke-linecap:round;stroke-linejoin:round;stroke-opacity:.941176;stroke-width:7" transform="translate(4 4)"/><g transform="translate(9 24)"><path d="m0 0h93v93h-93z"/><g fill="#fff" fill-rule="nonzero"><path d="m45.5 19c4.1175333 0 6.5-3.02415 6.5-7.3791 0-4.96005-2.4896444-7.6209-6.5-7.6209-4.2247111 0-6.5 3.14505-6.5 7.6209 0 4.71825 2.3839111 7.3791 6.5 7.3791z"/><path d="m31 23.5698552c-.4785658-.2592881-.9839483-.4760152-1.5288429-.6278113-4.5076474-1.2560585-11.9368996-1.2560585-16.2756582 0-8.13390637 2.3548009-7.54850132 18.1752984-6.78108438 25.7064199.39141118 3.8413862 3.11417226 4.9463748 4.85540998 4.9463748 0 0 0-10.193582 0-12.7200796 0-3.1207541.2021245-6.1735267 1.0341585-8.9652681.1335134-.4478349.3788586-.6809764.5781302-.499402v51.5899111c3.3626556 0 5.8353643-2.0705282 6.1444707-6.1494136 0 0 .9568463-23.7608149.9666886-24.0302712.0098424-.2694562.2507656-.6212746.7049395-.6212746s.6671393.3518184.678408.6212746c.0112688.2694563.9582727 24.0707986.9582727 24.0707986.2256605 3.9374027 2.3818454 6.1088862 6.1946809 6.1088862v-26.7028998c-.9631225-1.1809593-1.6251266-2.7654494-1.7527917-4.8464363-.502815-8.1951025-1.3981823-22.0437029 4.2232181-27.8808087z"/><path d="m54.3200373 23.0930294c-5.1089922-1.3960711-11.8691497-1.5174116-17.6361672 0-8.9546278 2.3560158-7.8851035 19.0462332-7.324138 28.2860278.2551409 4.2021976 3.1471208 5.3928785 5.052709 5.3928785 0 0 0-8.6169231 0-11.3710464 0-5.0626517.0743743-9.8424184 1.1622767-12.7792079.1883765-.5086687.4824274-.5682464.5945631-.4317566v56.8100752c3.9925174 0 7.1785484-2.2281203 7.5196934-6.7030062 0 0 1.0459773-26.0026998 1.0571765-26.2972381.0111992-.2945384.2847183-.6772053.7558029-.6772053s.745896.3826669.7570952.6772053c.0111992.2945383 1.0558842 26.2972381 1.0558842 26.2972381.3424373 4.4930943 3.5574713 6.7030062 7.5196934 6.7030062v-56.8100752c.1794745-.1593595.4389228-.1053171.5945631.4317566.8637748 2.9823833 1.1637125 7.7620043 1.1637125 12.7792079v11.3710464c1.9041524 0 4.7965631-1.1908266 5.0512733-5.3928785.5602475-9.2397946 1.6096707-25.8449425-7.3241381-28.2860278z"/><path d="m22 19c3.8013 0 6-2.6209444 6-6.3948444 0-4.29953338-2.2983-6.6051556-6-6.6051556-3.8994 0-6 2.72523333-6 6.6051556 0 4.0885 2.2002 6.3948444 6 6.3948444z"/><path d="m60 23.5698552c.478563-.2592881.9839427-.4760152 1.5288342-.6278113 4.5077643-1.2560585 11.9369741-1.2560585 16.2757079 0 8.13386 2.3548009 7.5484583 18.1752984 6.7810457 25.7064199-.3914089 3.8413862-3.1141544 4.9463748-4.8553822 4.9463748 0 0 0-10.193582 0-12.7200796 0-3.1207541-.2021233-6.1735267-1.0341526-8.9652681-.1335127-.4478349-.3788565-.6809764-.578127-.499402v51.5899111c-3.3626364 0-5.835331-2.0705282-6.1444356-6.1494136 0 0-.9568408-23.7608149-.9666831-24.0302712-.0098423-.2694562-.2507642-.6212746-.7049355-.6212746s-.6671354.3518184-.6784041.6212746c-.0112687.2694563-.9582672 24.0707986-.9582672 24.0707986-.2258019 3.9374027-2.3819744 6.1088862-6.1947882 6.1088862v-26.7028998c.963117-1.1809593 1.6251174-2.7654494 1.7527817-4.8464363.5029548-8.1951025 1.398317-22.0437029-4.223194-27.8808087z"/><path d="m70 19c-3.8013 0-6-2.6209444-6-6.3948444 0-4.29953338 2.2983-6.6051556 6-6.6051556 3.8994 0 6 2.72523333 6 6.6051556 0 4.0885-2.2002 6.3948444-6 6.3948444z"/></g></g></g></svg>