<svg height="150" viewBox="0 0 112 150" width="112" xmlns="http://www.w3.org/2000/svg" xmlns:xlink="http://www.w3.org/1999/xlink"><filter id="a"><feColorMatrix in="SourceGraphic" type="matrix" values="0 0 0 0 1.000000 0 0 0 0 1.000000 0 0 0 0 1.000000 0 0 0 1.000000 0"/></filter><g fill="none" fill-rule="evenodd"><path d="m103.747296 49.70028c0 41.213955-51.77915 92.033615-51.77915 92.033615s-51.968146-51.00865-51.968146-92.033615c0-29.118712 21.407939-49.70028 51.779156-49.70028 30.37122 0 51.96814 20.581569 51.96814 49.70028z" style="fill:#01689b;fill-rule:nonzero;stroke:#fff;stroke-linecap:round;stroke-linejoin:round;stroke-opacity:.941176;stroke-width:7" transform="translate(4 4)"/><g filter="url(#a)"><g transform="translate(10 12)"><path d="m0 0h91v91h-91z"/><g fill="#000" fill-rule="nonzero" transform="translate(14 1)"><ellipse cx="32.215909" cy="49.204918" rx="3.579545" ry="3.565574"/><ellipse cx="27.204546" cy="9.983607" rx="4.295455" ry="4.278689"/><ellipse cx="38.659091" cy="2.852459" rx="2.863636" ry="2.852459"/><path d="m59.8816432 64.8768984-16.9270977-25.5259427v-17.0217639c1.1392977-.2853885 2.7509522-.6962852 4.1004409-1.0688164 2.3990113-.6620557 1.9353886-4.1396311-.0296387-4.1420557h-31.0506954c-1.9650273.0024246-2.42865 3.4798573-.0296387 4.1420557 1.3494887.3725312 2.9611432.7834279 4.1004409 1.0688164v17.0217639l-16.92709768 25.5259427c-6.28782955 9.4820016.53879318 22.1231016 11.94709088 22.1231016h32.8691046c11.4082977 0 18.2349204-12.6411 11.9470909-22.1231016zm-51.98445002 3.1444082c3.74363182-5.6455869 14.51835002-21.893764 17.87553412-26.9563082 0-9.695223 0-8.6154246 0-18.2453263h11.4545454v18.2453263c1.2784705 1.927977.6855546 1.0338737 10.5996068 15.9841819h-27.4339227s-1.6059273 1.869359-3.6090409 4.3106361c1.8255682.1627328 3.2615386 1.6729672 3.2615386 3.5336262 0 1.9691951-1.602634 3.5655738-3.5795454 3.5655738-1.5857386 0-2.9150386-1.0338738-3.3852477-2.4565377-.6524796.8478934-1.277325 1.6798131-1.83015 2.4506902-2.78603185 3.8851918-2.26313185 8.0208295-1.61007958 10.3440147 0 0-.12456818.5355492-.68655682-.0376525-.56198864-.5732016-1.05510682-1.2288393-1.45429773-1.9680541-1.52273863-2.8197983-1.37411591-6.0985573.39761591-8.7701704zm30.04598862 7.747136c-2.07585 0-3.7585227-1.6761049-3.7585227-3.7438524 0-2.0677476 1.6826727-3.7438525 3.7585227-3.7438525s3.7585227 1.6761049 3.7585227 3.7438525c0 2.0677475-1.6826727 3.7438524-3.7585227 3.7438524z"/></g></g></g></g></svg>