<?xml version="1.0" encoding="UTF-8"?>
<svg width="112px" height="150px" viewBox="0 0 112 150" version="1.1" xmlns="http://www.w3.org/2000/svg" xmlns:xlink="http://www.w3.org/1999/xlink">
    <title>marker-g</title>
    <g id="marker-g" stroke="none" stroke-width="1" fill="none" fill-rule="evenodd">
        <g id="Group" transform="translate(4.000000, 4.000000)" fill="#01689B" fill-rule="nonzero" stroke="#FFFFFF" stroke-linecap="round" stroke-linejoin="round" stroke-opacity="0.94117647" stroke-width="7">
            <g id="path883">
                <path d="M103.747296,49.70028 C103.747296,90.914235 51.968146,141.733895 51.968146,141.733895 C51.968146,141.733895 0,90.725245 0,49.70028 C0,20.581568 21.407939,-1.42108547e-14 51.779156,-1.42108547e-14 C82.150376,-1.42108547e-14 103.747296,20.581569 103.747296,49.70028 Z"></path>
            </g>
        </g>
        <path d="M53.54,99.64 C69.74,99.64 76.76,92.8 76.76,84.34 C76.76,77.14 72.71,73.36 63.17,73.36 L52.55,73.36 C48.41,73.36 46.88,72.28 46.88,70.3 C46.88,69.22 47.6,68.14 48.77,67.51 C50.48,67.96 52.37,68.23 54.35,68.23 C66.59,68.23 73.25,63.1 73.25,53.29 C73.25,49.42 71.63,46.36 69.74,44.92 L69.74,44.65 L76.58,44.65 L76.58,37.9 L62.18,37.9 C59.93,37.27 57.77,37 55.34,37 C44.09,37 36.8,42.85 36.8,53.65 C36.8,59.41 39.14,63.19 43.19,65.44 L43.19,65.71 C39.95,66.97 38.24,69.58 38.24,72.37 C38.24,74.98 39.68,77.23 41.75,78.31 L41.75,78.58 C37.34,80.47 35,83.98 35,88.21 C35,95.14 40.85,99.64 53.54,99.64 Z M54.98,61.3 C49.76,61.3 46.52,58.87 46.52,53.11 C46.52,47.08 50.12,44.2 55.16,44.2 C60.83,44.2 63.8,47.08 63.8,52.48 C63.8,58.69 60.56,61.3 54.98,61.3 Z M54.44,92.08 C47.51,92.08 44.45,89.74 44.45,86.23 C44.45,84.16 45.17,82.72 46.88,81.55 L61.64,82 C66.05,82.09 67.67,83.53 67.67,86.14 C67.67,89.65 64.16,92.08 54.44,92.08 Z" id="g" fill="#FFFFFF" fill-rule="nonzero"></path>
    </g>
</svg>